<?xml version="1.0" encoding="UTF-8"?>
<svg id="Calque_1" data-name="Calque 1" xmlns="http://www.w3.org/2000/svg" viewBox="0 0 1024 1024">
  <defs>
    <style>
      .cls-1 {
        fill: #cb5520;
      }

      .cls-2 {
        fill: #fff;
      }
    </style>
  </defs>
  <rect class="cls-2" x="47.81" y="59.43" width="947.62" height="926.61" rx="418.38" ry="418.38"/>
  <g>
    <path class="cls-1" d="M487.87.55c410.74-18.52,676.97,434.5,456.93,784.7-197.3,314.02-654.98,319.25-859.63,9.91C-133.92,463.99,94.44,18.29,487.87.55ZM772.43,228.52c-.97-3.18,0-18.32,0-23.1,0-6.86-14.13-32.32-19.2-37.97-18.32-20.42-56.71-10.49-79.07-2.21-20.67,7.65-30.83,15.5-42.7,34.22-8.3,13.1-25.19,44.67-9.94,57.08,18.25,14.86,22.78-17.14,26.85-28.04,8.62-23.08,20.07-32.62,43.36-40.16,25.54-8.27,44.11-11.12,51.85,19.6s-5.33,44.65-19.9,68.54c-5.15,8.45-15.16,23.7-2.15,30.57,8.22,4.34,16.18,1.13,21.73-5.45,17.3-20.55,21.3-37.65,50.38-48.53,29.06-10.87,79.07,4.22,92.07,33.57,29.05,65.56-15.93,141.64-77.4,168.17-95.7,41.31-185.18-23.45-226.75-107.59-18.12-36.68-22.22-77.76-28.36-117.91-6.48-42.4-7.82-81.1-6.95-124.05.2-9.81,4.84-16.87-5.4-24.2-16.24-11.63-20.35,18.75-20.95,28.6-2.06,33.97-.94,60.85-6.89,95.42-18.16,105.5-44.33,172.91-123.13,246.27-22.15,20.62-46.19,31.07-74.99,40.36-43.82,14.14-92.99,4.79-132.31-18.6-28.19-16.77-65.14-74.69-62.11-108.02,2.67-29.32,17.26-71.03,49.23-78.29,33.72-7.65,60.75.73,86.78,22.03,6.19,5.06,19.97,21.22,26.89,21.53,4.03.18,9.22-1.58,11.52-5.02,10.63-15.87-15.29-31.97-23.62-42.35-6-7.48-20.79-42-21.4-51.2-1.12-16.85,14.93-46.75,32.65-49.77,20.48-3.5,44.57,9.05,57.94,23.93,25.22,28.06,28.26,58.91,37.47,93.37,5.2,19.45,27.23,16.68,26.77-.33-.44-16.12-9.74-46.98-15.68-62.49-17.49-45.62-53.83-88.02-107.55-81.94-40.38,4.57-63.17,53.18-55.23,89.95,1.17,5.41,4.88,10.5,3.88,16.47-16.19-2.61-30.02-5.41-46.71-4.45-36.53,2.1-59.47,17.43-74.25,51.01-26.08,59.25-13.38,108.54,25.46,157.5,29.1,36.67,92.63,62.01,138.9,60.03,39.25-1.68,101.56-24.16,130.62-50.63,52.18-47.53,96.36-103.68,113.04-173.87l12.08-51.69c1.09.04,2.26,3.98,2.48,5.19,4.09,22.43,5.18,43.9,11.56,66.54,18.17,64.54,77.18,144.73,143.5,164.24,78.16,23,160.53,1,207.28-67.31,43.91-64.18,43.85-164.49-42.62-190.13-14.42-4.28-43.04-8.34-57.57-6-3.69.6-19.63,13.1-21.47,7.09ZM508.73,431.83c-55.21,5.64-90.14,65.27-74.97,117.4,19.94,68.49,109.9,87.54,156.4,33.53,55.36-64.29,2.43-159.5-81.43-150.93ZM232.31,792.93c1.25,4.47,0,23.39,0,29.71,0,7.26,12.24,26.39,17.57,31.9,31.31,32.37,92.39,21.85,117.25-13.4,14.15-20.06,24.28-54.44,20.96-78.91-1.49-10.97-14.84-20.82-25.08-13.23-8.76,6.49-2.27,17.46-2.18,26.32.41,38.87-36.45,86.3-78.44,67.54-38.65-17.27-21.66-65.42-6.75-93.4,5.4-10.13,27.86-38.49,11.46-47.74-19.8-11.17-30.52,23.77-37.04,35.3-16.1,28.43-61.54,53.32-90.73,30.04-9.26-7.38-25.77-23.39-29-34.75-18.03-63.39,23.18-122.6,79.28-148.06,94.85-43.04,192.91,15.45,239.54,99.19,30.25,54.31,62.27,179.78,49.6,240.09-2.09,9.94-12.48,30.32,6.5,31.64,6.34.44,8.09-3.39,12.21-5.2,8.45-3.71,11.15-.51,14.04-11.24,4.81-17.87.6-48.89,1.63-68.77,2.59-49.77,18.63-122.79,38.22-168.53,20.31-47.44,67.87-119.56,115.07-142.13,63.55-30.39,136.51-42.96,197.25,1.15,46.94,34.08,70.48,108.4,30.36,156.54-10.97,13.16-16.7,18.33-34.59,17.13-18.73-1.25-52.19-14.55-66.39-26.99-7.8-6.84-11.99-18.09-20.33-24.74-13.52-10.79-47.78-20.38-44.46,7.15,1.7,14.11,37.1,30.04,47.79,42.31,14.79,17,15.95,52.16,7.32,72.28-16.54,38.56-48.71,37.18-78.16,13.02-19.17-15.73-35.3-34.81-43.62-58.61-4.8-13.72-5.14-43.81-26.33-36.83-9.57,3.15-8.94,13.25-7.69,21.43,8.53,56.04,67.1,129.17,129.32,116.96,40.47-7.94,56.82-49.47,57.11-86.98.03-3.29-2.65-19.9-1.18-21.45,7.62,2.22,13.87,5.65,21.91,7.19,39.75,7.59,63.86-1.19,86.56-34.35,26.02-38.01,20.49-104.08-1.8-143.01-16.61-29.01-55.1-60.47-87.79-68.25-24.24-5.77-48.26-11.47-73.22-9.12-31.7,2.99-74.3,17.07-103.05,30.95-59.94,28.95-121.05,120.72-139.57,183.58-6.96,23.63-10.26,50.69-17.97,73.31-.49,1.44-.31,3.36-2.33,3.7.04-1.93.09-3.86-.29-5.77-19.92-100.3-70.17-195.64-169.89-234.61-117.84-46.05-277.75,48.09-242.27,184.49,6.2,23.82,41.67,56.56,65.5,61.98,12.91,2.93,31.07,1.68,43.71-2.49,4.68-1.54,13.86-7.65,17.48-7.85,1.06-.06,2.3.69,2.52,1.49Z"/>
    <path class="cls-1" d="M514.14,499.97c32.64-6.65,41.92,37.04,14.57,46.51-21.27,7.36-40.17-15.96-28.77-35.43,2.45-4.19,9.47-10.11,14.2-11.08Z"/>
  </g>
</svg>