<?xml version="1.0" encoding="UTF-8"?>
<svg id="Calque_1" data-name="Calque 1" xmlns="http://www.w3.org/2000/svg" viewBox="0 0 533.33 533.33">
  <defs>
    <style>
      .cls-1 {
        fill: #1ed660;
      }
    </style>
  </defs>
  <path class="cls-1" d="M424.41,236.41c-85.96-51.05-227.74-55.74-309.8-30.84-13.18,4-27.11-3.44-31.1-16.62-3.99-13.19,3.44-27.11,16.62-31.12,94.2-28.59,250.78-23.07,349.74,35.67,11.86,7.04,15.74,22.34,8.71,34.18-7.03,11.85-22.35,15.76-34.18,8.72M421.59,312.01c-6.03,9.79-18.83,12.86-28.6,6.85-71.66-44.05-180.94-56.81-265.72-31.08-10.99,3.32-22.61-2.88-25.95-13.85-3.31-10.99,2.89-22.58,13.86-25.93,96.85-29.39,217.25-15.16,299.56,35.42,9.77,6.02,12.85,18.82,6.84,28.58M388.96,384.62c-4.77,7.83-14.99,10.32-22.82,5.55-.01,0-.02-.01-.03-.02-62.62-38.27-141.44-46.91-234.26-25.71-8.94,2.05-17.85-3.55-19.9-12.49,0,0,0,0,0,0-2.05-8.93,3.52-17.84,12.46-19.89.01,0,.03,0,.04,0,101.58-23.22,188.71-13.23,259,29.72,7.83,4.79,10.31,15.02,5.52,22.85,0,0,0,0,0,0M266.66,0C119.39,0,0,119.39,0,266.66s119.39,266.67,266.66,266.67,266.67-119.38,266.67-266.67S413.94,0,266.66,0"/>
</svg>